<svg width="145" height="39" viewBox="0 0 145 39" fill="none" xmlns="http://www.w3.org/2000/svg">
<path d="M28.5351 10.2801C29.1827 10.2806 29.8241 10.1535 30.4225 9.90614C31.021 9.65874 31.5648 9.29587 32.023 8.83823C32.4812 8.3806 32.8448 7.83718 33.0929 7.23901C33.341 6.64085 33.4689 5.99966 33.4691 5.35207C33.4689 4.70449 33.341 4.0633 33.0929 3.46513C32.8448 2.86697 32.4812 2.32355 32.023 1.86592C31.5648 1.40828 31.021 1.0454 30.4225 0.798008C29.8241 0.550613 29.1827 0.423548 28.5351 0.424074C27.8876 0.42368 27.2464 0.550841 26.648 0.798295C26.0497 1.04575 25.5059 1.40865 25.0479 1.86627C24.5898 2.32389 24.2263 2.86727 23.9783 3.46537C23.7302 4.06347 23.6024 4.70457 23.6021 5.35207C23.6024 5.99958 23.7302 6.64068 23.9783 7.23878C24.2263 7.83688 24.5898 8.38026 25.0479 8.83788C25.5059 9.2955 26.0497 9.6584 26.648 9.90585C27.2464 10.1533 27.8876 10.2805 28.5351 10.2801ZM5.51213 10.2801C6.15963 10.2805 6.80086 10.1533 7.39921 9.90585C7.99756 9.6584 8.54131 9.2955 8.99939 8.83788C9.45748 8.38026 9.82093 7.83688 10.069 7.23878C10.3171 6.64068 10.4449 5.99958 10.4451 5.35207C10.4449 4.70457 10.3171 4.06347 10.069 3.46537C9.82093 2.86727 9.45748 2.32389 8.99939 1.86627C8.54131 1.40865 7.99756 1.04575 7.39921 0.798295C6.80086 0.550841 6.15963 0.42368 5.51213 0.424074C4.86454 0.423548 4.2232 0.550613 3.62473 0.798008C3.02626 1.0454 2.4824 1.40828 2.02421 1.86592C1.56602 2.32355 1.20248 2.86697 0.954355 3.46513C0.706232 4.0633 0.578387 4.70449 0.578125 5.35207C0.578387 5.99966 0.706232 6.64085 0.954355 7.23901C1.20248 7.83718 1.56602 8.3806 2.02421 8.83823C2.4824 9.29587 3.02626 9.65874 3.62473 9.90614C4.2232 10.1535 4.86454 10.2806 5.51213 10.2801ZM73.4451 1.62807C74.2051 1.62807 74.8291 1.84507 75.3171 2.27907C75.8051 2.71307 76.0491 3.28307 76.0491 3.98907V28.3241C76.0491 29.0571 75.8191 29.6401 75.3571 30.0741C74.8971 30.5081 74.2861 30.7251 73.5271 30.7251C72.7671 30.7251 72.1571 30.5081 71.6951 30.0751C71.2341 29.6401 71.0031 29.0571 71.0031 28.3251V27.3071C70.4061 28.4191 69.5381 29.2871 68.3981 29.9111C67.2861 30.5351 66.0111 30.8471 64.5731 30.8471C62.8631 30.8471 61.3311 30.4131 59.9751 29.5451C58.6451 28.6771 57.6011 27.4561 56.8411 25.8821C56.1081 24.2821 55.7421 22.4511 55.7421 20.3891C55.7421 18.3271 56.1081 16.5231 56.8411 14.9761C57.6011 13.4301 58.6451 12.2361 59.9751 11.3951C61.3041 10.5541 62.8371 10.1331 64.5731 10.1331C66.0111 10.1331 67.2861 10.4321 68.3991 11.0291C69.4836 11.5989 70.3754 12.4767 70.9621 13.5521V3.90707C70.9621 3.22907 71.1791 2.68607 71.6131 2.27907C72.0751 1.84507 72.6851 1.62807 73.4451 1.62807ZM65.9161 26.9001C67.5441 26.9001 68.7921 26.3441 69.6601 25.2311C70.5551 24.1191 71.0031 22.5311 71.0031 20.4701C71.0031 18.4081 70.5551 16.8341 69.6601 15.7501C68.7921 14.6371 67.5581 14.0801 65.9571 14.0801C64.3291 14.0801 63.0671 14.6231 62.1721 15.7091C61.2771 16.7941 60.8291 18.3541 60.8291 20.3891C60.8291 22.4511 61.2771 24.0511 62.1721 25.1911C63.0671 26.3311 64.3151 26.9001 65.9161 26.9001ZM90.3571 30.8471C88.3231 30.8471 86.5321 30.4271 84.9861 29.5861C83.4661 28.7451 82.2861 27.5381 81.4451 25.9641C80.6041 24.3901 80.1831 22.5591 80.1831 20.4701C80.1831 18.3811 80.6031 16.5631 81.4451 15.0171C82.2861 13.4431 83.4661 12.2361 84.9851 11.3951C86.5321 10.5541 88.3231 10.1331 90.3571 10.1331C92.3921 10.1331 94.1691 10.5531 95.6881 11.3951C97.2112 12.2117 98.4471 13.4759 99.2291 15.0171C100.07 16.5631 100.491 18.3811 100.491 20.4701C100.491 22.5601 100.07 24.3901 99.2291 25.9641C98.4471 27.5052 97.2112 28.7694 95.6881 29.5861C94.1691 30.4261 92.3921 30.8471 90.3581 30.8471H90.3571ZM90.3171 26.9001C91.9721 26.9001 93.2331 26.3571 94.1011 25.2721C94.9701 24.1871 95.4041 22.5861 95.4041 20.4701C95.4041 18.3811 94.9701 16.7941 94.1011 15.7091C93.2331 14.5961 91.9851 14.0401 90.3571 14.0401C88.7301 14.0401 87.4671 14.5961 86.5731 15.7091C85.7051 16.7941 85.2701 18.3811 85.2701 20.4701C85.2701 22.5861 85.7041 24.1871 86.5731 25.2721C87.4411 26.3571 88.6891 26.9001 90.3171 26.9001ZM121.538 10.2151C122.298 10.2151 122.908 10.4321 123.369 10.8651C123.831 11.3001 124.061 11.8831 124.061 12.6151V28.6901C124.061 31.8101 123.193 34.1701 121.457 35.7721C119.72 37.3721 117.157 38.1721 113.765 38.1721C110.808 38.1721 108.339 37.6171 106.359 36.5041C105.355 35.9071 104.853 35.1881 104.853 34.3471C104.853 33.7501 104.989 33.2761 105.26 32.9231C105.558 32.5701 105.938 32.3931 106.399 32.3931C106.644 32.3931 106.942 32.4481 107.295 32.5571C107.647 32.6921 108.014 32.8421 108.393 33.0041C109.243 33.3656 110.113 33.6781 110.998 33.9401C111.785 34.1571 112.68 34.2661 113.684 34.2661C117.238 34.2661 119.015 32.5301 119.015 29.0561V26.4521C118.418 27.5651 117.55 28.4321 116.411 29.0571C115.271 29.6541 113.969 29.9521 112.504 29.9521C110.767 29.9521 109.221 29.5451 107.864 28.7321C106.535 27.8901 105.491 26.7241 104.731 25.2321C103.971 23.7391 103.591 22.0171 103.591 20.0631C103.591 18.1101 103.958 16.3871 104.69 14.8951C105.45 13.3751 106.508 12.2091 107.864 11.3951C109.221 10.5541 110.767 10.1331 112.504 10.1331C113.969 10.1331 115.271 10.4451 116.411 11.0691C117.521 11.6373 118.43 12.5322 119.015 13.6331V12.5751C119.015 11.8701 119.246 11.3001 119.707 10.8651C120.168 10.4321 120.779 10.2151 121.538 10.2151ZM113.847 26.0051C115.475 26.0051 116.736 25.4751 117.631 24.4181C118.554 23.3591 119.015 21.9081 119.015 20.0631C119.015 18.1911 118.554 16.7261 117.631 15.6681C116.736 14.6101 115.475 14.0811 113.847 14.0811C112.246 14.0811 110.984 14.6101 110.062 15.6681C109.14 16.7261 108.678 18.1911 108.678 20.0631C108.678 21.9081 109.14 23.3591 110.062 24.4181C110.984 25.4761 112.246 26.0051 113.847 26.0051ZM136.533 30.8471C133.576 30.8471 131.189 30.2641 129.371 29.0971C128.503 28.5821 128.069 27.8491 128.069 26.9001C128.069 26.3571 128.218 25.9231 128.516 25.5981C128.815 25.2451 129.181 25.0681 129.615 25.0681C130.076 25.0681 130.714 25.2861 131.528 25.7201C132.396 26.1271 133.183 26.4391 133.888 26.6561C134.621 26.8731 135.543 26.9811 136.655 26.9811C137.795 26.9811 138.677 26.7911 139.301 26.4111C139.952 26.0311 140.277 25.5031 140.277 24.8241C140.277 24.3641 140.142 23.9971 139.87 23.7261C139.626 23.4541 139.165 23.2101 138.487 22.9931C137.835 22.7491 136.832 22.4781 135.475 22.1791C133.061 21.6911 131.324 20.9991 130.266 20.1041C129.235 19.2091 128.72 17.9741 128.72 16.4011C128.72 15.2071 129.072 14.1351 129.778 13.1851C130.483 12.2091 131.446 11.4631 132.667 10.9471C133.915 10.4051 135.326 10.1331 136.899 10.1331C138.039 10.1331 139.138 10.2831 140.196 10.5811C141.205 10.8313 142.168 11.2433 143.045 11.8011C143.913 12.3441 144.347 13.0631 144.347 13.9591C144.347 14.5011 144.198 14.9631 143.899 15.3421C143.601 15.6951 143.234 15.8721 142.8 15.8721C142.502 15.8721 142.203 15.8171 141.905 15.7091C141.548 15.5273 141.195 15.3372 140.847 15.1391C140.06 14.7321 139.382 14.4341 138.812 14.2441C138.242 14.0271 137.537 13.9181 136.696 13.9181C135.692 13.9181 134.892 14.1221 134.295 14.5281C133.725 14.9351 133.44 15.4921 133.44 16.1971C133.44 16.8751 133.739 17.3911 134.336 17.7431C134.933 18.0961 136.086 18.4491 137.795 18.8021C139.613 19.1821 141.037 19.6151 142.068 20.1041C143.099 20.5921 143.831 21.2031 144.265 21.9351C144.727 22.6681 144.957 23.6041 144.957 24.7431C144.957 26.5881 144.184 28.0671 142.638 29.1791C141.118 30.2911 139.083 30.8471 136.533 30.8471Z" fill="#9C9C9C"/>
</svg>
